inDegrees=yes
name=ik_S48_A08_T01
DataType=double
version=3
OpenSimVersion=4.3-2021-08-27-4bc7ad9
endheader
time	pelvis_tilt	pelvis_list	pelvis_rotation	pelvis_tx	pelvis_ty	pelvis_tz	hip_flexion_r	hip_adduction_r	hip_rotation_r	knee_angle_r	knee_angle_r_beta	ankle_angle_r	subtalar_angle_r	mtp_angle_r	hip_flexion_l	hip_adduction_l	hip_rotation_l	knee_angle_l	knee_angle_l_beta	ankle_angle_l	subtalar_angle_l	mtp_angle_l	lumbar_extension	lumbar_bending	lumbar_rotation	arm_flex_r	arm_add_r	arm_rot_r	elbow_flex_r	pro_sup_r	wrist_flex_r	wrist_dev_r	arm_flex_l	arm_add_l	arm_rot_l	elbow_flex_l	pro_sup_l	wrist_flex_l	wrist_dev_l
13.25999999999981	-4.304831787173642	0.6240856347315337	31.10206095882397	0	0.9399999999999999	0	26.70756926208473	-8.97761396975435	-7.99500750279439	29.72935434500163	0.5188751178123606	0	0	0	26.70756926208473	-8.97761396975435	-7.99500750279439	29.72935434500163	0.5188751178123606	0	0	0	-0.2113177149449117	-1.759073286291247	4.491439696409596	27.5082996282749	-8.795920297290744	-3.503048957268708	52.61410968608003	154.1279172863178	0	0	91.35088868747621	-40.59124559825921	35.46002983151868	104.3320105563986	82.26213706746523	0	0
13.27999999999981	-4.292538850491812	0.7031365226818976	31.10358723075725	0	0.9399999999999999	0	26.71642532548174	-8.979241086175701	-7.997056824051222	29.73842395310213	0.51903341233558	0	0	0	26.71642532548174	-8.979241086175701	-7.997056824051222	29.73842395310213	0.51903341233558	0	0	0	-0.1608984238979121	-1.69639157453861	4.485708449438467	27.46045004111687	-8.889361485013453	-3.501109625419266	52.55171720084252	154.1831758667961	0	0	92.05896811571556	-40.58523667198975	35.85522379768746	104.2685131324065	82.5541912678645	0	0
13.29999999999981	-4.282918081845474	0.7271640207045206	31.09361509377596	0	0.9399999999999999	0	26.72293376515489	-8.980425942745162	-7.998554592394309	29.74513494893279	0.5191505413089126	0	0	0	26.72293376515489	-8.980425942745162	-7.998554592394309	29.74513494893279	0.5191505413089126	0	0	0	-0.141159154373437	-1.679743666059562	4.49952669653202	27.48855683722083	-8.885267037262359	-3.585869876622448	52.47305965806254	154.2764688246361	0	1.077613842297402e-35	91.99688299840088	-40.5641820990044	35.7751777568165	104.6387177692638	83.18283031934516	0	1.077613842297402e-35
13.3199999999998	-4.260084899989449	0.7943636773319666	31.10497652154996	0	0.9399999999999999	0	26.73293862976687	-8.982258840078151	-8.000866289823682	29.75539125891438	0.5193295476871964	0	0	0	26.73293862976687	-8.982258840078151	-8.000866289823682	29.75539125891438	0.5193295476871964	0	0	0	-0.08674216351487758	-1.63373433716319	4.476712185074097	27.37196733498314	-8.962484301326866	-3.529055500549632	52.48808977009808	154.2487052783559	0	0	93.70849885636048	-40.54882905236727	36.85945649641295	103.8814018630826	82.67445275339635	0	0
13.3399999999998	-4.237731983662355	0.8398095887639693	31.10609705955935	0	0.9399999999999999	0	26.74087928733025	-8.983712117151814	-8.00270022005815	29.76353143924381	0.5194716206356511	0	0	0	26.74087928733025	-8.983712117151814	-8.00270022005815	29.76353143924381	0.5194716206356511	0	0	0	-0.04509962992373591	-1.605054146572661	4.479850453079687	27.37308522428065	-8.978629600975799	-3.570153121464333	52.39260572464099	154.3477025996632	0	0	94.51616838150983	-40.48706951922691	37.3614146697879	103.6412373483183	82.72168210474983	0	0
13.3599999999998	-4.232234319583362	0.8767000317735689	31.11846330401318	0	0.9399999999999999	0	26.75058083317111	-8.985486797602357	-8.004940521585754	29.77347297197655	0.5196451331145322	0	0	0	26.75058083317111	-8.985486797602357	-8.004940521585754	29.77347297197655	0.5196451331145322	0	0	0	-0.02225704300033423	-1.574846788848497	4.476202959999308	27.3270090876697	-9.042641834248469	-3.546627061349717	52.38311313115321	154.3730086965923	0	0	95.38958643153546	-40.38966857956746	37.72523054280001	103.2294239756723	82.845765203014	0	0
13.3799999999998	-4.214828668466314	0.9213113846104695	31.09395956470197	0	0.9399999999999999	0	26.75817206081093	-8.986873567495071	-8.006692357572572	29.78125392335776	0.5197809363350719	0	0	0	26.75817206081093	-8.986873567495071	-8.006692357572572	29.78125392335776	0.5197809363350719	0	0	0	0.01505013728269218	-1.544798299568566	4.482659506629069	27.39480110478917	-9.054342294863517	-3.56794378106685	52.23125569123699	154.4575047660287	0	0	96.12724044905727	-40.22366573595585	38.01876178233916	102.8115274719667	83.11712963095216	0	0
13.3999999999998	-4.180982549920598	0.9826660184267331	31.08541606473219	0	0.9399999999999999	0	26.76799966566635	-8.988667301462188	-8.008959414346947	29.79132669459259	0.5199567393579199	0	0	0	26.76799966566635	-8.988667301462188	-8.008959414346947	29.79132669459259	0.5199567393579199	0	0	0	0.07449107319970738	-1.508372796072502	4.484054753680869	27.34848474830135	-9.10516834107591	-3.521994291007416	52.15309086987317	154.493505094707	0	0	96.83757911242563	-40.08777120890714	38.62965372776159	102.2644001779135	82.98726755726824	0	0
13.4199999999998	-4.15479801096894	1.040155949120094	31.08191043498623	0	0.9399999999999999	0	26.77626716667056	-8.990175506645562	-8.010866317125791	29.79979676861814	0.5201045700375534	0	0	0	26.77626716667056	-8.990175506645562	-8.010866317125791	29.79979676861814	0.5201045700375534	0	0	0	0.1259568290767417	-1.471573059521078	4.471785449961329	27.42136976509781	-9.147077071415886	-3.463260166490383	51.99013010203565	154.539085146966	0	0	97.5596749771655	-39.99953277783521	38.93613499702919	101.8675993446251	83.06237912735335	0	0
13.4399999999998	-4.131816830922894	1.078101055014632	31.08409626282213	0	0.9399999999999999	0	26.78588106552266	-8.991925893894683	-8.013081425205369	29.80965470244055	0.5202766234401982	0	0	0	26.78588106552266	-8.991925893894683	-8.013081425205369	29.80965470244055	0.5202766234401982	0	0	0	0.1638235891044426	-1.449746200104415	4.481345698486357	27.42274522637852	-9.189416850043761	-3.464389739712609	51.89987786504957	154.5885458992106	0	0	99.16474988812061	-39.76927755671925	39.69845828657133	100.8439311955549	82.66244065274718	0	0
13.4599999999998	-4.110183152020086	1.113217903646293	31.07903188268635	0	0.9399999999999999	0	26.7933559581297	-8.993276460762189	-8.014795753084924	29.81736327872135	0.5204111634769393	0	0	0	26.7933559581297	-8.993276460762189	-8.014795753084924	29.81736327872135	0.5204111634769393	0	0	0	0.2001306038683902	-1.429946350177091	4.45478868236013	27.36264495005906	-9.178332314758025	-3.419664220190351	51.87752125915232	154.6137930986599	0	0	99.06988638631144	-39.80315282833154	39.59962058999575	100.9490497697386	83.11294465474579	0	0
13.4799999999998	-4.097683806608508	1.145992023518051	31.07555306139515	0	0.9399999999999999	0	26.80387766920525	-8.995190461547693	-8.01721955036987	29.82814211806368	0.5205992897130064	0	0	0	26.80387766920525	-8.995190461547693	-8.01721955036987	29.82814211806368	0.5205992897130064	0	0	0	0.2265941006251529	-1.40676275370911	4.449648212677702	27.39972603076335	-9.218535866534596	-3.421832047171045	51.76185209764195	154.6522191484073	0	0	99.70723839923608	-39.72802834823182	40.05627846507734	100.6138655682449	83.19142163031923	0	0
13.4999999999998	-4.077333168993539	1.18527573143131	31.06636136295715	0	0.9399999999999999	0	26.81430113081262	-8.997086021406169	-8.019620787063964	29.83881198328969	0.5207855139919444	0	0	0	26.81430113081262	-8.997086021406169	-8.019620787063964	29.83881198328969	0.5207855139919444	0	0	0	0.2634940422841004	-1.382318977433226	4.43479076944799	27.4785391214056	-9.247131579308141	-3.388612824672306	51.61552403665444	154.6785320473315	0	0	100.3645770743515	-39.68826729493834	40.33538637834108	100.3742314265838	83.35297864194862	0	0
13.5199999999998	-4.072227577346553	1.205070783110521	31.05935195234189	0	0.9399999999999999	0	26.82021569646687	-8.99815006632203	-8.020974495396397	29.84491490948864	0.5208920301481222	0	0	0	26.82021569646687	-8.99815006632203	-8.020974495396397	29.84491490948864	0.5208920301481222	0	0	0	0.2776003694419329	-1.367190134970706	4.426649596517003	27.51039211115049	-9.269942885765751	-3.380214398540757	51.5825104724093	154.7126361427394	0	0	100.3261796980724	-39.70273492856683	40.26241083119885	100.49777410505	83.71343935548882	0	0
13.5399999999998	-4.070739098198614	1.236473429065556	31.03868800037336	0	0.9399999999999999	0	26.82933930043512	-8.999801536286499	-8.023070780594617	29.85427834932982	0.5210554530026632	0	0	0	26.82933930043512	-8.999801536286499	-8.023070780594617	29.85427834932982	0.5210554530026632	0	0	0	0.2936349047020083	-1.339233354267432	4.431876747082237	27.50431173882146	-9.33923559858219	-3.360290138266733	51.56458100837887	154.6915178939191	0	0	101.4943121001654	-39.52989076791846	40.90996650908382	99.81742587578927	83.51218250591947	0	0
13.5599999999998	-4.070710756617505	1.262990154735326	31.04233717101283	0	0.9399999999999999	0	26.83800512506494	-9.001368436371552	-8.025060882181107	29.86317268867004	0.5212106885089398	0	0	0	26.83800512506494	-9.001368436371552	-8.025060882181107	29.86317268867004	0.5212106885089398	0	0	0	0.3067915365997952	-1.315547994210763	4.417629375073884	27.49751769069686	-9.361298157665335	-3.341776208597805	51.54318403506689	154.7131681392719	0	0	102.0448104630061	-39.50921689112353	41.25167545194791	99.49908146812358	83.36401573598688	0	0
13.5799999999998	-4.06107495810086	1.278323117024113	31.05828047967352	0	0.9399999999999999	0	26.84571026890035	-9.002758516339128	-8.026828158314933	29.87109028650903	0.5213488766600789	0	0	0	26.84571026890035	-9.002758516339128	-8.026828158314933	29.87109028650903	0.5213488766600789	0	0	0	0.3222526453323342	-1.306256977614053	4.412500747430758	27.46753983666817	-9.391829690577122	-3.345068808364475	51.54019508971242	154.7135119545582	0	0	102.5190555030354	-39.43953828295601	41.55908595716395	99.32979143595273	83.56800553739292	0	0
13.5999999999998	-4.056601596769418	1.296157205981036	31.05674884260554	0	0.9399999999999999	0	26.8531997908806	-9.004108563654572	-8.028545335523956	29.87878629909027	0.5214831974188964	0	0	0	26.8531997908806	-9.004108563654572	-8.028545335523956	29.87878629909027	0.5214831974188964	0	0	0	0.3344534925076222	-1.2920626999266	4.40897770972037	27.42140893932533	-9.397158474001101	-3.375148974271514	51.55044398756922	154.7443061573019	0	0	102.9707410808907	-39.3704074452661	41.8397398066849	99.13405160469719	83.71442693328295	0	0
